<svg width="50" height="51" fill="none" xmlns="http://www.w3.org/2000/svg"><path d="M19.195 23.285a2.517 2.517 0 00-3.56 3.56l7.52 7.52a2.507 2.507 0 001.78.726 2.507 2.507 0 001.805-.852l17.545-20.052a2.506 2.506 0 00-3.76-3.309l-15.59 18.047-5.74-5.64z" fill="#fff"/><path d="M47.493 22.559a2.507 2.507 0 00-2.506 2.506 20.052 20.052 0 01-20.052 20.052 20.053 20.053 0 01-14.212-34.189 19.877 19.877 0 0114.212-5.915c1.603.01 3.2.195 4.762.551A2.506 2.506 0 1030.875.702 26.419 26.419 0 0024.935 0 25.065 25.065 0 007.389 42.836a24.89 24.89 0 0017.546 7.294A25.065 25.065 0 0050 25.065a2.507 2.507 0 00-2.507-2.506z" fill="#fff"/></svg>