<svg width="35" height="35" fill="none" xmlns="http://www.w3.org/2000/svg"><path d="M13.398 12.523h1.641v13.125H13.4V12.523zm3.282 0h1.64v13.125h-1.64V12.523zm3.28 0h1.642v13.125H19.96V12.523zM6.836 7.602h21.328v1.64H6.836v-1.64z" fill="#fff"/><path d="M25.046 8.422h-1.533v-1.64c0-.493-3.88-.876-4.372-.876h-3.282c-.492 0-4.372.383-4.372.875v1.64H9.954v-1.64c0-1.312 3.915-2.406 5.905-2.406h3.282c1.99 0 5.905 1.094 5.905 2.406v1.64z" fill="#fff"/><path d="M22.422 30.57h-9.844c-1.312 0-2.46-1.093-2.57-2.406L8.477 8.477l1.64-.11 1.531 19.688c.055.492.493.875.93.875h9.844c.492 0 .93-.438.93-.875l1.53-19.688 1.641.11-1.53 19.687c-.11 1.367-1.259 2.406-2.571 2.406z" fill="#fff"/></svg>