<svg width="64" height="64" viewBox="0 0 64 64" fill="none" xmlns="http://www.w3.org/2000/svg">
<path d="M55.736 13.6359L51.368 9.27392C50.917 8.82292 50.324 8.59692 49.732 8.59692C49.14 8.59692 48.548 8.82192 48.097 9.27292L44.603 12.7569L52.242 20.3829L55.736 16.8999C56.639 15.9979 56.639 14.5349 55.736 13.6359Z" fill="black"/>
<path d="M21.922 35.3959L29.562 43.0229L50.607 22.0169L42.967 14.3899L21.922 35.3959Z" fill="black"/>
<path d="M20.273 37.0278L18.642 46.2798L27.913 44.6538L20.273 37.0278Z" fill="black"/>
<path d="M41.393 50.4029H12.587V21.5969H32.916L37.926 16.5969H10.82C9.041 16.5969 7.586 18.0519 7.586 19.8309V52.1699C7.586 53.9489 9.041 55.4039 10.82 55.4039H43.159C44.938 55.4039 46.393 53.9489 46.393 52.1699V29.0489L41.393 34.0399V50.4029Z" fill="black"/>
</svg>
