<svg width="50" height="51" viewBox="0 0 50 51" fill="none" xmlns="http://www.w3.org/2000/svg">
<path d="M19.1951 23.2855C18.7231 22.8135 18.0829 22.5483 17.4154 22.5483C16.748 22.5483 16.1078 22.8135 15.6358 23.2855C15.1638 23.7574 14.8987 24.3976 14.8987 25.0651C14.8987 25.7326 15.1638 26.3727 15.6358 26.8447L23.1554 34.3642C23.3896 34.5965 23.6673 34.7803 23.9727 34.9051C24.2781 35.0298 24.6051 35.093 24.935 35.0911C25.2781 35.0802 25.6154 34.999 25.9258 34.8524C26.2362 34.7058 26.5133 34.497 26.7397 34.2389L44.2852 14.1868C44.6904 13.6838 44.8857 13.0439 44.8305 12.4004C44.7753 11.7569 44.4739 11.1595 43.989 10.7329C43.5042 10.3062 42.8734 10.0832 42.2281 10.1102C41.5828 10.1373 40.9729 10.4124 40.5255 10.8782L24.935 28.9251L19.1951 23.2855Z" fill="white"/>
<path d="M47.4935 22.5586C46.8287 22.5586 46.1912 22.8227 45.7211 23.2927C45.2511 23.7628 44.987 24.4003 44.987 25.0651C44.987 30.3832 42.8744 35.4836 39.1139 39.2441C35.3534 43.0046 30.253 45.1172 24.9349 45.1172V45.1172C20.9748 45.1154 17.104 43.941 13.8104 41.7423C10.5169 39.5435 7.94809 36.4187 6.42804 32.762C4.90798 29.1053 4.5047 25.0804 5.26905 21.1948C6.03339 17.3092 7.93114 13.7369 10.723 10.9284C12.5796 9.04696 14.7928 7.55473 17.233 6.53902C19.6733 5.52331 22.2917 5.00452 24.9349 5.01302C26.5377 5.02306 28.1346 5.20796 29.6973 5.56445C30.0243 5.6656 30.3686 5.6987 30.7088 5.6617C31.0491 5.62471 31.3783 5.5184 31.6759 5.34934C31.9735 5.18028 32.2334 4.95204 32.4394 4.67871C32.6455 4.40537 32.7934 4.09273 32.874 3.76005C32.9546 3.42737 32.9662 3.08171 32.9081 2.74438C32.85 2.40704 32.7234 2.08519 32.5361 1.79865C32.3489 1.51211 32.1049 1.26697 31.8193 1.07833C31.5336 0.88969 31.2124 0.761555 30.8753 0.701823C28.9281 0.24374 26.9352 0.0082901 24.9349 0C19.9829 0.0257256 15.1495 1.51774 11.0446 4.28777C6.93968 7.05779 3.7473 10.9817 1.87029 15.5643C-0.00671118 20.1468 -0.484223 25.1827 0.498019 30.0364C1.48026 34.8901 3.87824 39.3441 7.38933 42.8363C12.0431 47.4922 18.3519 50.1148 24.9349 50.1302C31.5826 50.1302 37.958 47.4894 42.6586 42.7888C47.3592 38.0882 50 31.7128 50 25.0651C50 24.4003 49.7359 23.7628 49.2659 23.2927C48.7958 22.8227 48.1583 22.5586 47.4935 22.5586Z" fill="white"/>
</svg>
