<svg width="35" height="35" viewBox="0 0 35 35" fill="none" xmlns="http://www.w3.org/2000/svg">
<path d="M13.3984 12.5234H15.0391V25.6484H13.3984V12.5234Z" fill="white"/>
<path d="M16.6797 12.5234H18.3203V25.6484H16.6797V12.5234Z" fill="white"/>
<path d="M19.9609 12.5234H21.6016V25.6484H19.9609V12.5234Z" fill="white"/>
<path d="M6.83594 7.60156H28.1641V9.24219H6.83594V7.60156Z" fill="white"/>
<path d="M25.046 8.42187H23.513V6.78125C23.513 6.28906 19.6329 5.90625 19.1407 5.90625C17.8593 5.90625 17.1408 5.90625 15.8594 5.90625C15.3672 5.90625 11.4871 6.28906 11.4871 6.78125L11.487 8.42187H9.9541L9.95412 6.78125C9.95412 5.46875 13.8687 4.375 15.8594 4.375C17.8501 4.375 17.1501 4.375 19.1407 4.375C21.1312 4.375 25.046 5.46875 25.046 6.78125V8.42187Z" fill="white"/>
<path d="M22.4219 30.5703H12.5781C11.2656 30.5703 10.1172 29.4766 10.0078 28.1641L8.47656 8.47656L10.1172 8.36719L11.6484 28.0547C11.7031 28.5469 12.1406 28.9297 12.5781 28.9297H22.4219C22.9141 28.9297 23.3516 28.4922 23.3516 28.0547L24.8828 8.36719L26.5234 8.47656L24.9922 28.1641C24.8828 29.5312 23.7344 30.5703 22.4219 30.5703Z" fill="white"/>
</svg>
